{
    "asset" : {
        "generator" : "Khronos glTF Blender I/O v1.4.40",
        "version" : "2.0"
    },
    "scene" : 0,
    "scenes" : [
        {
            "name" : "Scene",
            "nodes" : [
                7
            ]
        }
    ],
    "nodes" : [
        {
            "mesh" : 0,
            "name" : "Plane.562_Leaves_0"
        },
        {
            "children" : [
                0
            ],
            "name" : "Plane.562",
            "rotation" : [
                -0.6743486523628235,
                0.3700661063194275,
                -0.6004043817520142,
                0.21867726743221283
            ],
            "scale" : [
                31.999996185302734,
                31.999998092651367,
                32
            ],
            "translation" : [
                -41.50871658325195,
                469.35052490234375,
                -138.43539428710938
            ]
        },
        {
            "mesh" : 1,
            "name" : "tree_Trunk_0"
        },
        {
            "children" : [
                2
            ],
            "name" : "tree",
            "rotation" : [
                -0.7071068286895752,
                0,
                0,
                0.7071067094802856
            ],
            "scale" : [
                100,
                100,
                100
            ]
        },
        {
            "children" : [
                1,
                3
            ],
            "name" : "RootNode"
        },
        {
            "children" : [
                4
            ],
            "name" : "21c1786d2ce7433c9c9dfb76b60992e4.fbx",
            "rotation" : [
                0.7071068286895752,
                0,
                0,
                0.7071068286895752
            ]
        },
        {
            "children" : [
                5
            ],
            "name" : "RootNode (model correction matrix)"
        },
        {
            "children" : [
                6
            ],
            "name" : "RootNode (gltf orientation matrix)",
            "rotation" : [
                -0.7071068286895752,
                0,
                0,
                0.7071068286895752
            ],
            "scale" : [
                0.5,
                0.5,
                0.5
            ]
        }
    ],
    "materials" : [
        {
            "alphaMode" : "BLEND",
            "doubleSided" : true,
            "name" : "Leaves",
            "pbrMetallicRoughness" : {
                "baseColorTexture" : {
                    "index" : 0,
                    "texCoord" : 0
                },
                "metallicFactor" : 0.08683247119188309
            }
        },
        {
            "doubleSided" : true,
            "name" : "Trunk",
            "pbrMetallicRoughness" : {
                "baseColorFactor" : [
                    0.0851527750492096,
                    0.04810747876763344,
                    0.04810747876763344,
                    1
                ],
                "metallicFactor" : 0,
                "roughnessFactor" : 0.7763931751251221
            }
        }
    ],
    "meshes" : [
        {
            "name" : "Plane.562_Leaves_0",
            "primitives" : [
                {
                    "attributes" : {
                        "POSITION" : 0,
                        "NORMAL" : 1,
                        "TEXCOORD_0" : 2
                    },
                    "indices" : 3,
                    "material" : 0
                }
            ]
        },
        {
            "name" : "tree_Trunk_0",
            "primitives" : [
                {
                    "attributes" : {
                        "POSITION" : 4,
                        "NORMAL" : 5,
                        "TEXCOORD_0" : 6
                    },
                    "indices" : 7,
                    "material" : 1
                }
            ]
        }
    ],
    "textures" : [
        {
            "sampler" : 0,
            "source" : 0
        }
    ],
    "images" : [
        {
            "bufferView" : 4,
            "mimeType" : "image/png",
            "name" : "Leaves_baseColor"
        }
    ],
    "accessors" : [
        {
            "bufferView" : 0,
            "componentType" : 5126,
            "count" : 12000,
            "max" : [
                9.493587493896484,
                5.234400749206543,
                8.717703819274902
            ],
            "min" : [
                -4.4837164878845215,
                -9.302359580993652,
                -7.709305763244629
            ],
            "type" : "VEC3"
        },
        {
            "bufferView" : 1,
            "componentType" : 5126,
            "count" : 12000,
            "type" : "VEC3"
        },
        {
            "bufferView" : 2,
            "componentType" : 5126,
            "count" : 12000,
            "type" : "VEC2"
        },
        {
            "bufferView" : 3,
            "componentType" : 5123,
            "count" : 18000,
            "type" : "SCALAR"
        },
        {
            "bufferView" : 5,
            "componentType" : 5126,
            "count" : 3451,
            "max" : [
                1.6977289915084839,
                1.677717685699463,
                6.54751443862915
            ],
            "min" : [
                -2.1949493885040283,
                -1.565531849861145,
                0
            ],
            "type" : "VEC3"
        },
        {
            "bufferView" : 6,
            "componentType" : 5126,
            "count" : 3451,
            "type" : "VEC3"
        },
        {
            "bufferView" : 7,
            "componentType" : 5126,
            "count" : 3451,
            "type" : "VEC2"
        },
        {
            "bufferView" : 8,
            "componentType" : 5123,
            "count" : 16992,
            "type" : "SCALAR"
        }
    ],
    "bufferViews" : [
        {
            "buffer" : 0,
            "byteLength" : 144000,
            "byteOffset" : 0
        },
        {
            "buffer" : 0,
            "byteLength" : 144000,
            "byteOffset" : 144000
        },
        {
            "buffer" : 0,
            "byteLength" : 96000,
            "byteOffset" : 288000
        },
        {
            "buffer" : 0,
            "byteLength" : 36000,
            "byteOffset" : 384000
        },
        {
            "buffer" : 0,
            "byteLength" : 3108,
            "byteOffset" : 420000
        },
        {
            "buffer" : 0,
            "byteLength" : 41412,
            "byteOffset" : 423108
        },
        {
            "buffer" : 0,
            "byteLength" : 41412,
            "byteOffset" : 464520
        },
        {
            "buffer" : 0,
            "byteLength" : 27608,
            "byteOffset" : 505932
        },
        {
            "buffer" : 0,
            "byteLength" : 33984,
            "byteOffset" : 533540
        }
    ],
    "samplers" : [
        {
            "magFilter" : 9729,
            "minFilter" : 9986
        }
    ],
    "buffers" : [
        {
            "byteLength" : 567524,
            "uri" : "data:application/octet-stream;base64,"
        }
    ]
}
